<svg xmlns="http://www.w3.org/2000/svg" width="1400" height="360" viewBox="-3 -11.5 330.968556340659 47.9"><rect x="-3" y="-11.5" width="330.968556340659" height="47.9" fill="white" /><text x="0" y="-7.5" font-family="Arial" font-size="3" fill="#152f40">led-lower-v0.2 / OUTSIDE VIEW / native copper routing</text><line x1="10.830124000000001" y1="1.6000000000000014" x2="24.437147000000003" y2="1.6000000000000014" stroke="#ce581d" stroke-width="0.35" stroke-linecap="round" opacity="0.85" /><line x1="24.437147000000003" y1="1.6000000000000014" x2="24.437147000000003" y2="-0.7999999999999972" stroke="#246dbe" stroke-width="0.35" stroke-linecap="round" opacity="0.85" /><line x1="10.830124000000001" y1="1.6000000000000014" x2="10.830124000000001" y2="-0.7999999999999972" stroke="#246dbe" stroke-width="0.35" stroke-linecap="round" opacity="0.85" /><line x1="8.797865999999999" y1="2.8999999999999986" x2="22.404888999999997" y2="2.8999999999999986" stroke="#ce581d" stroke-width="0.35" stroke-linecap="round" opacity="0.85" /><line x1="8.797865999999999" y1="2.8999999999999986" x2="8.797865999999999" y2="-0.7999999999999972" stroke="#246dbe" stroke-width="0.35" stroke-linecap="round" opacity="0.85" /><line x1="22.404888999999997" y1="2.8999999999999986" x2="22.404888999999997" y2="-0.7999999999999972" stroke="#246dbe" stroke-width="0.35" stroke-linecap="round" opacity="0.85" /><line x1="3.209156" y1="4.200000000000003" x2="16.816178999999998" y2="4.200000000000003" stroke="#ce581d" stroke-width="0.35" stroke-linecap="round" opacity="0.85" /><line x1="16.816178999999998" y1="4.200000000000003" x2="16.816178999999998" y2="-0.7999999999999972" stroke="#246dbe" stroke-width="0.35" stroke-linecap="round" opacity="0.85" /><line x1="3.209156" y1="4.200000000000003" x2="3.209156" y2="-0.7999999999999972" stroke="#246dbe" stroke-width="0.35" stroke-linecap="round" opacity="0.85" /><line x1="1.1768980000000013" y1="5.5" x2="14.783921" y2="5.5" stroke="#ce581d" stroke-width="0.6" stroke-linecap="round" opacity="0.85" /><line x1="1.1768980000000013" y1="5.5" x2="1.1768980000000013" y2="-0.7999999999999972" stroke="#246dbe" stroke-width="0.6" stroke-linecap="round" opacity="0.85" /><line x1="14.783921" y1="5.5" x2="14.783921" y2="-0.7999999999999972" stroke="#246dbe" stroke-width="0.6" stroke-linecap="round" opacity="0.85" /><line x1="38.04417" y1="1.6000000000000014" x2="51.651194000000004" y2="1.6000000000000014" stroke="#ce581d" stroke-width="0.35" stroke-linecap="round" opacity="0.85" /><line x1="51.651194000000004" y1="1.6000000000000014" x2="51.651194000000004" y2="-0.7999999999999972" stroke="#246dbe" stroke-width="0.35" stroke-linecap="round" opacity="0.85" /><line x1="38.04417" y1="1.6000000000000014" x2="38.04417" y2="-0.7999999999999972" stroke="#246dbe" stroke-width="0.35" stroke-linecap="round" opacity="0.85" /><line x1="36.011912" y1="2.8999999999999986" x2="49.61893499999999" y2="2.8999999999999986" stroke="#ce581d" stroke-width="0.35" stroke-linecap="round" opacity="0.85" /><line x1="49.61893499999999" y1="2.8999999999999986" x2="49.61893499999999" y2="-0.7999999999999972" stroke="#246dbe" stroke-width="0.35" stroke-linecap="round" opacity="0.85" /><line x1="36.011912" y1="2.8999999999999986" x2="36.011912" y2="-0.7999999999999972" stroke="#246dbe" stroke-width="0.35" stroke-linecap="round" opacity="0.85" /><line x1="30.423203" y1="4.200000000000003" x2="44.030226" y2="4.200000000000003" stroke="#ce581d" stroke-width="0.35" stroke-linecap="round" opacity="0.85" /><line x1="44.030226" y1="4.200000000000003" x2="44.030226" y2="-0.7999999999999972" stroke="#246dbe" stroke-width="0.35" stroke-linecap="round" opacity="0.85" /><line x1="30.423203" y1="4.200000000000003" x2="30.423203" y2="-0.7999999999999972" stroke="#246dbe" stroke-width="0.35" stroke-linecap="round" opacity="0.85" /><line x1="28.390945000000002" y1="5.5" x2="41.997968" y2="5.5" stroke="#ce581d" stroke-width="0.6" stroke-linecap="round" opacity="0.85" /><line x1="28.390945000000002" y1="5.5" x2="28.390945000000002" y2="-0.7999999999999972" stroke="#246dbe" stroke-width="0.6" stroke-linecap="round" opacity="0.85" /><line x1="41.997968" y1="5.5" x2="41.997968" y2="-0.7999999999999972" stroke="#246dbe" stroke-width="0.6" stroke-linecap="round" opacity="0.85" /><line x1="65.258217" y1="1.6000000000000014" x2="78.86524" y2="1.6000000000000014" stroke="#ce581d" stroke-width="0.35" stroke-linecap="round" opacity="0.85" /><line x1="78.86524" y1="1.6000000000000014" x2="78.86524" y2="-0.7999999999999972" stroke="#246dbe" stroke-width="0.35" stroke-linecap="round" opacity="0.85" /><line x1="65.258217" y1="1.6000000000000014" x2="65.258217" y2="-0.7999999999999972" stroke="#246dbe" stroke-width="0.35" stroke-linecap="round" opacity="0.85" /><line x1="63.225959" y1="2.8999999999999986" x2="76.832982" y2="2.8999999999999986" stroke="#ce581d" stroke-width="0.35" stroke-linecap="round" opacity="0.85" /><line x1="76.832982" y1="2.8999999999999986" x2="76.832982" y2="-0.7999999999999972" stroke="#246dbe" stroke-width="0.35" stroke-linecap="round" opacity="0.85" /><line x1="63.225959" y1="2.8999999999999986" x2="63.225959" y2="-0.7999999999999972" stroke="#246dbe" stroke-width="0.35" stroke-linecap="round" opacity="0.85" /><line x1="57.637249" y1="4.200000000000003" x2="71.244272" y2="4.200000000000003" stroke="#ce581d" stroke-width="0.35" stroke-linecap="round" opacity="0.85" /><line x1="71.244272" y1="4.200000000000003" x2="71.244272" y2="-0.7999999999999972" stroke="#246dbe" stroke-width="0.35" stroke-linecap="round" opacity="0.85" /><line x1="57.637249" y1="4.200000000000003" x2="57.637249" y2="-0.7999999999999972" stroke="#246dbe" stroke-width="0.35" stroke-linecap="round" opacity="0.85" /><line x1="55.604991" y1="5.5" x2="69.212014" y2="5.5" stroke="#ce581d" stroke-width="0.6" stroke-linecap="round" opacity="0.85" /><line x1="55.604991" y1="5.5" x2="55.604991" y2="-0.7999999999999972" stroke="#246dbe" stroke-width="0.6" stroke-linecap="round" opacity="0.85" /><line x1="69.212014" y1="5.5" x2="69.212014" y2="-0.7999999999999972" stroke="#246dbe" stroke-width="0.6" stroke-linecap="round" opacity="0.85" /><line x1="92.472263" y1="1.6000000000000014" x2="106.079286" y2="1.6000000000000014" stroke="#ce581d" stroke-width="0.35" stroke-linecap="round" opacity="0.85" /><line x1="106.079286" y1="1.6000000000000014" x2="106.079286" y2="-0.7999999999999972" stroke="#246dbe" stroke-width="0.35" stroke-linecap="round" opacity="0.85" /><line x1="92.472263" y1="1.6000000000000014" x2="92.472263" y2="-0.7999999999999972" stroke="#246dbe" stroke-width="0.35" stroke-linecap="round" opacity="0.85" /><line x1="90.440005" y1="2.8999999999999986" x2="104.047028" y2="2.8999999999999986" stroke="#ce581d" stroke-width="0.35" stroke-linecap="round" opacity="0.85" /><line x1="104.047028" y1="2.8999999999999986" x2="104.047028" y2="-0.7999999999999972" stroke="#246dbe" stroke-width="0.35" stroke-linecap="round" opacity="0.85" /><line x1="90.440005" y1="2.8999999999999986" x2="90.440005" y2="-0.7999999999999972" stroke="#246dbe" stroke-width="0.35" stroke-linecap="round" opacity="0.85" /><line x1="84.851295" y1="4.200000000000003" x2="98.458319" y2="4.200000000000003" stroke="#ce581d" stroke-width="0.35" stroke-linecap="round" opacity="0.85" /><line x1="84.851295" y1="4.200000000000003" x2="84.851295" y2="-0.7999999999999972" stroke="#246dbe" stroke-width="0.35" stroke-linecap="round" opacity="0.85" /><line x1="98.458319" y1="4.200000000000003" x2="98.458319" y2="-0.7999999999999972" stroke="#246dbe" stroke-width="0.35" stroke-linecap="round" opacity="0.85" /><line x1="82.819037" y1="5.5" x2="96.42606" y2="5.5" stroke="#ce581d" stroke-width="0.6" stroke-linecap="round" opacity="0.85" /><line x1="96.42606" y1="5.5" x2="96.42606" y2="-0.7999999999999972" stroke="#246dbe" stroke-width="0.6" stroke-linecap="round" opacity="0.85" /><line x1="82.819037" y1="5.5" x2="82.819037" y2="-0.7999999999999972" stroke="#246dbe" stroke-width="0.6" stroke-linecap="round" opacity="0.85" /><line x1="119.686309" y1="1.6000000000000014" x2="133.293333" y2="1.6000000000000014" stroke="#ce581d" stroke-width="0.35" stroke-linecap="round" opacity="0.85" /><line x1="119.686309" y1="1.6000000000000014" x2="119.686309" y2="-0.7999999999999972" stroke="#246dbe" stroke-width="0.35" stroke-linecap="round" opacity="0.85" /><line x1="133.293333" y1="1.6000000000000014" x2="133.293333" y2="-0.7999999999999972" stroke="#246dbe" stroke-width="0.35" stroke-linecap="round" opacity="0.85" /><line x1="117.65405100000001" y1="2.8999999999999986" x2="131.261075" y2="2.8999999999999986" stroke="#ce581d" stroke-width="0.35" stroke-linecap="round" opacity="0.85" /><line x1="131.261075" y1="2.8999999999999986" x2="131.261075" y2="-0.7999999999999972" stroke="#246dbe" stroke-width="0.35" stroke-linecap="round" opacity="0.85" /><line x1="117.65405100000001" y1="2.8999999999999986" x2="117.65405100000001" y2="-0.7999999999999972" stroke="#246dbe" stroke-width="0.35" stroke-linecap="round" opacity="0.85" /><line x1="112.06534199999999" y1="4.200000000000003" x2="125.67236500000001" y2="4.200000000000003" stroke="#ce581d" stroke-width="0.35" stroke-linecap="round" opacity="0.85" /><line x1="125.67236500000001" y1="4.200000000000003" x2="125.67236500000001" y2="-0.7999999999999972" stroke="#246dbe" stroke-width="0.35" stroke-linecap="round" opacity="0.85" /><line x1="112.06534199999999" y1="4.200000000000003" x2="112.06534199999999" y2="-0.7999999999999972" stroke="#246dbe" stroke-width="0.35" stroke-linecap="round" opacity="0.85" /><line x1="110.033084" y1="5.5" x2="123.640107" y2="5.5" stroke="#ce581d" stroke-width="0.6" stroke-linecap="round" opacity="0.85" /><line x1="123.640107" y1="5.5" x2="123.640107" y2="-0.7999999999999972" stroke="#246dbe" stroke-width="0.6" stroke-linecap="round" opacity="0.85" /><line x1="110.033084" y1="5.5" x2="110.033084" y2="-0.7999999999999972" stroke="#246dbe" stroke-width="0.6" stroke-linecap="round" opacity="0.85" /><line x1="146.900356" y1="1.6000000000000014" x2="160.507379" y2="1.6000000000000014" stroke="#ce581d" stroke-width="0.35" stroke-linecap="round" opacity="0.85" /><line x1="146.900356" y1="1.6000000000000014" x2="146.900356" y2="-0.7999999999999972" stroke="#246dbe" stroke-width="0.35" stroke-linecap="round" opacity="0.85" /><line x1="160.507379" y1="1.6000000000000014" x2="160.507379" y2="-0.7999999999999972" stroke="#246dbe" stroke-width="0.35" stroke-linecap="round" opacity="0.85" /><line x1="144.868098" y1="2.8999999999999986" x2="158.475121" y2="2.8999999999999986" stroke="#ce581d" stroke-width="0.35" stroke-linecap="round" opacity="0.85" /><line x1="144.868098" y1="2.8999999999999986" x2="144.868098" y2="-0.7999999999999972" stroke="#246dbe" stroke-width="0.35" stroke-linecap="round" opacity="0.85" /><line x1="158.475121" y1="2.8999999999999986" x2="158.475121" y2="-0.7999999999999972" stroke="#246dbe" stroke-width="0.35" stroke-linecap="round" opacity="0.85" /><line x1="139.279388" y1="4.200000000000003" x2="152.886411" y2="4.200000000000003" stroke="#ce581d" stroke-width="0.35" stroke-linecap="round" opacity="0.85" /><line x1="152.886411" y1="4.200000000000003" x2="152.886411" y2="-0.7999999999999972" stroke="#246dbe" stroke-width="0.35" stroke-linecap="round" opacity="0.85" /><line x1="139.279388" y1="4.200000000000003" x2="139.279388" y2="-0.7999999999999972" stroke="#246dbe" stroke-width="0.35" stroke-linecap="round" opacity="0.85" /><line x1="137.24713" y1="5.5" x2="150.854153" y2="5.5" stroke="#ce581d" stroke-width="0.6" stroke-linecap="round" opacity="0.85" /><line x1="137.24713" y1="5.5" x2="137.24713" y2="-0.7999999999999972" stroke="#246dbe" stroke-width="0.6" stroke-linecap="round" opacity="0.85" /><line x1="150.854153" y1="5.5" x2="150.854153" y2="-0.7999999999999972" stroke="#246dbe" stroke-width="0.6" stroke-linecap="round" opacity="0.85" /><line x1="174.114402" y1="1.6000000000000014" x2="187.721425" y2="1.6000000000000014" stroke="#ce581d" stroke-width="0.35" stroke-linecap="round" opacity="0.85" /><line x1="187.721425" y1="1.6000000000000014" x2="187.721425" y2="-0.7999999999999972" stroke="#246dbe" stroke-width="0.35" stroke-linecap="round" opacity="0.85" /><line x1="174.114402" y1="1.6000000000000014" x2="174.114402" y2="-0.7999999999999972" stroke="#246dbe" stroke-width="0.35" stroke-linecap="round" opacity="0.85" /><line x1="172.082144" y1="2.8999999999999986" x2="185.689167" y2="2.8999999999999986" stroke="#ce581d" stroke-width="0.35" stroke-linecap="round" opacity="0.85" /><line x1="185.689167" y1="2.8999999999999986" x2="185.689167" y2="-0.7999999999999972" stroke="#246dbe" stroke-width="0.35" stroke-linecap="round" opacity="0.85" /><line x1="172.082144" y1="2.8999999999999986" x2="172.082144" y2="-0.7999999999999972" stroke="#246dbe" stroke-width="0.35" stroke-linecap="round" opacity="0.85" /><line x1="166.493434" y1="4.200000000000003" x2="180.100458" y2="4.200000000000003" stroke="#ce581d" stroke-width="0.35" stroke-linecap="round" opacity="0.85" /><line x1="180.100458" y1="4.200000000000003" x2="180.100458" y2="-0.7999999999999972" stroke="#246dbe" stroke-width="0.35" stroke-linecap="round" opacity="0.85" /><line x1="166.493434" y1="4.200000000000003" x2="166.493434" y2="-0.7999999999999972" stroke="#246dbe" stroke-width="0.35" stroke-linecap="round" opacity="0.85" /><line x1="164.461176" y1="5.5" x2="178.0682" y2="5.5" stroke="#ce581d" stroke-width="0.6" stroke-linecap="round" opacity="0.85" /><line x1="164.461176" y1="5.5" x2="164.461176" y2="-0.7999999999999972" stroke="#246dbe" stroke-width="0.6" stroke-linecap="round" opacity="0.85" /><line x1="178.0682" y1="5.5" x2="178.0682" y2="-0.7999999999999972" stroke="#246dbe" stroke-width="0.6" stroke-linecap="round" opacity="0.85" /><line x1="201.328449" y1="1.6000000000000014" x2="214.935472" y2="1.6000000000000014" stroke="#ce581d" stroke-width="0.35" stroke-linecap="round" opacity="0.85" /><line x1="201.328449" y1="1.6000000000000014" x2="201.328449" y2="-0.7999999999999972" stroke="#246dbe" stroke-width="0.35" stroke-linecap="round" opacity="0.85" /><line x1="214.935472" y1="1.6000000000000014" x2="214.935472" y2="-0.7999999999999972" stroke="#246dbe" stroke-width="0.35" stroke-linecap="round" opacity="0.85" /><line x1="199.29619" y1="2.8999999999999986" x2="212.903214" y2="2.8999999999999986" stroke="#ce581d" stroke-width="0.35" stroke-linecap="round" opacity="0.85" /><line x1="199.29619" y1="2.8999999999999986" x2="199.29619" y2="-0.7999999999999972" stroke="#246dbe" stroke-width="0.35" stroke-linecap="round" opacity="0.85" /><line x1="212.903214" y1="2.8999999999999986" x2="212.903214" y2="-0.7999999999999972" stroke="#246dbe" stroke-width="0.35" stroke-linecap="round" opacity="0.85" /><line x1="193.707481" y1="4.200000000000003" x2="207.314504" y2="4.200000000000003" stroke="#ce581d" stroke-width="0.35" stroke-linecap="round" opacity="0.85" /><line x1="207.314504" y1="4.200000000000003" x2="207.314504" y2="-0.7999999999999972" stroke="#246dbe" stroke-width="0.35" stroke-linecap="round" opacity="0.85" /><line x1="193.707481" y1="4.200000000000003" x2="193.707481" y2="-0.7999999999999972" stroke="#246dbe" stroke-width="0.35" stroke-linecap="round" opacity="0.85" /><line x1="191.675223" y1="5.5" x2="205.282246" y2="5.5" stroke="#ce581d" stroke-width="0.6" stroke-linecap="round" opacity="0.85" /><line x1="205.282246" y1="5.5" x2="205.282246" y2="-0.7999999999999972" stroke="#246dbe" stroke-width="0.6" stroke-linecap="round" opacity="0.85" /><line x1="191.675223" y1="5.5" x2="191.675223" y2="-0.7999999999999972" stroke="#246dbe" stroke-width="0.6" stroke-linecap="round" opacity="0.85" /><line x1="228.542495" y1="1.6000000000000014" x2="242.149518" y2="1.6000000000000014" stroke="#ce581d" stroke-width="0.35" stroke-linecap="round" opacity="0.85" /><line x1="228.542495" y1="1.6000000000000014" x2="228.542495" y2="-0.7999999999999972" stroke="#246dbe" stroke-width="0.35" stroke-linecap="round" opacity="0.85" /><line x1="242.149518" y1="1.6000000000000014" x2="242.149518" y2="-0.7999999999999972" stroke="#246dbe" stroke-width="0.35" stroke-linecap="round" opacity="0.85" /><line x1="226.510237" y1="2.8999999999999986" x2="240.11726" y2="2.8999999999999986" stroke="#ce581d" stroke-width="0.35" stroke-linecap="round" opacity="0.85" /><line x1="240.11726" y1="2.8999999999999986" x2="240.11726" y2="-0.7999999999999972" stroke="#246dbe" stroke-width="0.35" stroke-linecap="round" opacity="0.85" /><line x1="226.510237" y1="2.8999999999999986" x2="226.510237" y2="-0.7999999999999972" stroke="#246dbe" stroke-width="0.35" stroke-linecap="round" opacity="0.85" /><line x1="220.921527" y1="4.200000000000003" x2="234.52855" y2="4.200000000000003" stroke="#ce581d" stroke-width="0.35" stroke-linecap="round" opacity="0.85" /><line x1="220.921527" y1="4.200000000000003" x2="220.921527" y2="-0.7999999999999972" stroke="#246dbe" stroke-width="0.35" stroke-linecap="round" opacity="0.85" /><line x1="234.52855" y1="4.200000000000003" x2="234.52855" y2="-0.7999999999999972" stroke="#246dbe" stroke-width="0.35" stroke-linecap="round" opacity="0.85" /><line x1="218.889269" y1="5.5" x2="232.496292" y2="5.5" stroke="#ce581d" stroke-width="0.6" stroke-linecap="round" opacity="0.85" /><line x1="218.889269" y1="5.5" x2="218.889269" y2="-0.7999999999999972" stroke="#246dbe" stroke-width="0.6" stroke-linecap="round" opacity="0.85" /><line x1="232.496292" y1="5.5" x2="232.496292" y2="-0.7999999999999972" stroke="#246dbe" stroke-width="0.6" stroke-linecap="round" opacity="0.85" /><line x1="255.75654100000003" y1="1.6000000000000014" x2="269.363564" y2="1.6000000000000014" stroke="#ce581d" stroke-width="0.35" stroke-linecap="round" opacity="0.85" /><line x1="255.75654100000003" y1="1.6000000000000014" x2="255.75654100000003" y2="-0.7999999999999972" stroke="#246dbe" stroke-width="0.35" stroke-linecap="round" opacity="0.85" /><line x1="269.363564" y1="1.6000000000000014" x2="269.363564" y2="-0.7999999999999972" stroke="#246dbe" stroke-width="0.35" stroke-linecap="round" opacity="0.85" /><line x1="253.724283" y1="2.8999999999999986" x2="267.331306" y2="2.8999999999999986" stroke="#ce581d" stroke-width="0.35" stroke-linecap="round" opacity="0.85" /><line x1="267.331306" y1="2.8999999999999986" x2="267.331306" y2="-0.7999999999999972" stroke="#246dbe" stroke-width="0.35" stroke-linecap="round" opacity="0.85" /><line x1="253.724283" y1="2.8999999999999986" x2="253.724283" y2="-0.7999999999999972" stroke="#246dbe" stroke-width="0.35" stroke-linecap="round" opacity="0.85" /><line x1="248.13557400000002" y1="4.200000000000003" x2="261.742597" y2="4.200000000000003" stroke="#ce581d" stroke-width="0.35" stroke-linecap="round" opacity="0.85" /><line x1="261.742597" y1="4.200000000000003" x2="261.742597" y2="-0.7999999999999972" stroke="#246dbe" stroke-width="0.35" stroke-linecap="round" opacity="0.85" /><line x1="248.13557400000002" y1="4.200000000000003" x2="248.13557400000002" y2="-0.7999999999999972" stroke="#246dbe" stroke-width="0.35" stroke-linecap="round" opacity="0.85" /><line x1="246.103315" y1="5.5" x2="259.710339" y2="5.5" stroke="#ce581d" stroke-width="0.6" stroke-linecap="round" opacity="0.85" /><line x1="259.710339" y1="5.5" x2="259.710339" y2="-0.7999999999999972" stroke="#246dbe" stroke-width="0.6" stroke-linecap="round" opacity="0.85" /><line x1="246.103315" y1="5.5" x2="246.103315" y2="-0.7999999999999972" stroke="#246dbe" stroke-width="0.6" stroke-linecap="round" opacity="0.85" /><line x1="282.970588" y1="1.6000000000000014" x2="296.577611" y2="1.6000000000000014" stroke="#ce581d" stroke-width="0.35" stroke-linecap="round" opacity="0.85" /><line x1="282.970588" y1="1.6000000000000014" x2="282.970588" y2="-0.7999999999999972" stroke="#246dbe" stroke-width="0.35" stroke-linecap="round" opacity="0.85" /><line x1="296.577611" y1="1.6000000000000014" x2="296.577611" y2="-0.7999999999999972" stroke="#246dbe" stroke-width="0.35" stroke-linecap="round" opacity="0.85" /><line x1="280.93833" y1="2.8999999999999986" x2="294.545353" y2="2.8999999999999986" stroke="#ce581d" stroke-width="0.35" stroke-linecap="round" opacity="0.85" /><line x1="280.93833" y1="2.8999999999999986" x2="280.93833" y2="-0.7999999999999972" stroke="#246dbe" stroke-width="0.35" stroke-linecap="round" opacity="0.85" /><line x1="294.545353" y1="2.8999999999999986" x2="294.545353" y2="-0.7999999999999972" stroke="#246dbe" stroke-width="0.35" stroke-linecap="round" opacity="0.85" /><line x1="275.34962" y1="4.200000000000003" x2="288.956643" y2="4.200000000000003" stroke="#ce581d" stroke-width="0.35" stroke-linecap="round" opacity="0.85" /><line x1="288.956643" y1="4.200000000000003" x2="288.956643" y2="-0.7999999999999972" stroke="#246dbe" stroke-width="0.35" stroke-linecap="round" opacity="0.85" /><line x1="275.34962" y1="4.200000000000003" x2="275.34962" y2="-0.7999999999999972" stroke="#246dbe" stroke-width="0.35" stroke-linecap="round" opacity="0.85" /><line x1="273.317362" y1="5.5" x2="286.924385" y2="5.5" stroke="#ce581d" stroke-width="0.6" stroke-linecap="round" opacity="0.85" /><line x1="286.924385" y1="5.5" x2="286.924385" y2="-0.7999999999999972" stroke="#246dbe" stroke-width="0.6" stroke-linecap="round" opacity="0.85" /><line x1="273.317362" y1="5.5" x2="273.317362" y2="-0.7999999999999972" stroke="#246dbe" stroke-width="0.6" stroke-linecap="round" opacity="0.85" /><line x1="310.184634" y1="1.6000000000000014" x2="323.791657" y2="1.6000000000000014" stroke="#ce581d" stroke-width="0.35" stroke-linecap="round" opacity="0.85" /><line x1="323.791657" y1="1.6000000000000014" x2="323.791657" y2="-0.7999999999999972" stroke="#246dbe" stroke-width="0.35" stroke-linecap="round" opacity="0.85" /><line x1="310.184634" y1="1.6000000000000014" x2="310.184634" y2="-0.7999999999999972" stroke="#246dbe" stroke-width="0.35" stroke-linecap="round" opacity="0.85" /><line x1="308.152376" y1="2.8999999999999986" x2="321.759399" y2="2.8999999999999986" stroke="#ce581d" stroke-width="0.35" stroke-linecap="round" opacity="0.85" /><line x1="308.152376" y1="2.8999999999999986" x2="308.152376" y2="-0.7999999999999972" stroke="#246dbe" stroke-width="0.35" stroke-linecap="round" opacity="0.85" /><line x1="321.759399" y1="2.8999999999999986" x2="321.759399" y2="-0.7999999999999972" stroke="#246dbe" stroke-width="0.35" stroke-linecap="round" opacity="0.85" /><line x1="302.563666" y1="4.200000000000003" x2="316.170689" y2="4.200000000000003" stroke="#ce581d" stroke-width="0.35" stroke-linecap="round" opacity="0.85" /><line x1="316.170689" y1="4.200000000000003" x2="316.170689" y2="-0.7999999999999972" stroke="#246dbe" stroke-width="0.35" stroke-linecap="round" opacity="0.85" /><line x1="302.563666" y1="4.200000000000003" x2="302.563666" y2="-0.7999999999999972" stroke="#246dbe" stroke-width="0.35" stroke-linecap="round" opacity="0.85" /><line x1="300.531408" y1="5.5" x2="314.138431" y2="5.5" stroke="#ce581d" stroke-width="0.6" stroke-linecap="round" opacity="0.85" /><line x1="300.531408" y1="5.5" x2="300.531408" y2="-0.7999999999999972" stroke="#246dbe" stroke-width="0.6" stroke-linecap="round" opacity="0.85" /><line x1="314.138431" y1="5.5" x2="314.138431" y2="-0.7999999999999972" stroke="#246dbe" stroke-width="0.6" stroke-linecap="round" opacity="0.85" /><rect x="286.474385" y="-1.2999989999999997" width="0.9" height="1.0" rx="0.12" fill="#d6ad40" stroke="#725012" stroke-width="0.03" /><circle cx="286.924385" cy="-0.7999989999999997" r="0.15" fill="white" /><rect x="288.506643" y="-1.2999989999999997" width="0.9" height="1.0" rx="0.12" fill="#d6ad40" stroke="#725012" stroke-width="0.03" /><circle cx="288.956643" cy="-0.7999989999999997" r="0.15" fill="white" /><rect x="294.095353" y="-1.2999989999999997" width="0.9" height="1.0" rx="0.12" fill="#d6ad40" stroke="#725012" stroke-width="0.03" /><circle cx="294.545353" cy="-0.7999989999999997" r="0.15" fill="white" /><rect x="296.127611" y="-1.2999989999999997" width="0.9" height="1.0" rx="0.12" fill="#d6ad40" stroke="#725012" stroke-width="0.03" /><circle cx="296.577611" cy="-0.7999989999999997" r="0.15" fill="white" /><rect x="218.43926900000002" y="-1.2999989999999997" width="0.9" height="1.0" rx="0.12" fill="#d6ad40" stroke="#725012" stroke-width="0.03" /><circle cx="218.889269" cy="-0.7999989999999997" r="0.15" fill="white" /><rect x="220.471527" y="-1.2999989999999997" width="0.9" height="1.0" rx="0.12" fill="#d6ad40" stroke="#725012" stroke-width="0.03" /><circle cx="220.921527" cy="-0.7999989999999997" r="0.15" fill="white" /><rect x="226.060237" y="-1.2999989999999997" width="0.9" height="1.0" rx="0.12" fill="#d6ad40" stroke="#725012" stroke-width="0.03" /><circle cx="226.510237" cy="-0.7999989999999997" r="0.15" fill="white" /><rect x="228.092495" y="-1.2999989999999997" width="0.9" height="1.0" rx="0.12" fill="#d6ad40" stroke="#725012" stroke-width="0.03" /><circle cx="228.542495" cy="-0.7999989999999997" r="0.15" fill="white" /><rect x="123.190107" y="-1.2999989999999997" width="0.9" height="1.0" rx="0.12" fill="#d6ad40" stroke="#725012" stroke-width="0.03" /><circle cx="123.640107" cy="-0.7999989999999997" r="0.15" fill="white" /><rect x="125.22236500000001" y="-1.2999989999999997" width="0.9" height="1.0" rx="0.12" fill="#d6ad40" stroke="#725012" stroke-width="0.03" /><circle cx="125.67236500000001" cy="-0.7999989999999997" r="0.15" fill="white" /><rect x="130.81107500000002" y="-1.2999989999999997" width="0.9" height="1.0" rx="0.12" fill="#d6ad40" stroke="#725012" stroke-width="0.03" /><circle cx="131.261075" cy="-0.7999989999999997" r="0.15" fill="white" /><rect x="132.843333" y="-1.2999989999999997" width="0.9" height="1.0" rx="0.12" fill="#d6ad40" stroke="#725012" stroke-width="0.03" /><circle cx="133.293333" cy="-0.7999989999999997" r="0.15" fill="white" /><rect x="0.7268980000000014" y="-1.2999989999999997" width="0.9" height="1.0" rx="0.12" fill="#d6ad40" stroke="#725012" stroke-width="0.03" /><circle cx="1.1768980000000013" cy="-0.7999989999999997" r="0.15" fill="white" /><rect x="2.759156" y="-1.2999989999999997" width="0.9" height="1.0" rx="0.12" fill="#d6ad40" stroke="#725012" stroke-width="0.03" /><circle cx="3.209156" cy="-0.7999989999999997" r="0.15" fill="white" /><rect x="8.347866" y="-1.2999989999999997" width="0.9" height="1.0" rx="0.12" fill="#d6ad40" stroke="#725012" stroke-width="0.03" /><circle cx="8.797865999999999" cy="-0.7999989999999997" r="0.15" fill="white" /><rect x="10.380124000000002" y="-1.2999989999999997" width="0.9" height="1.0" rx="0.12" fill="#d6ad40" stroke="#725012" stroke-width="0.03" /><circle cx="10.830124000000001" cy="-0.7999989999999997" r="0.15" fill="white" /><rect x="272.867362" y="-1.2999989999999997" width="0.9" height="1.0" rx="0.12" fill="#d6ad40" stroke="#725012" stroke-width="0.03" /><circle cx="273.317362" cy="-0.7999989999999997" r="0.15" fill="white" /><rect x="274.89962" y="-1.2999989999999997" width="0.9" height="1.0" rx="0.12" fill="#d6ad40" stroke="#725012" stroke-width="0.03" /><circle cx="275.34962" cy="-0.7999989999999997" r="0.15" fill="white" /><rect x="280.48833" y="-1.2999989999999997" width="0.9" height="1.0" rx="0.12" fill="#d6ad40" stroke="#725012" stroke-width="0.03" /><circle cx="280.93833" cy="-0.7999989999999997" r="0.15" fill="white" /><rect x="282.52058800000003" y="-1.2999989999999997" width="0.9" height="1.0" rx="0.12" fill="#d6ad40" stroke="#725012" stroke-width="0.03" /><circle cx="282.970588" cy="-0.7999989999999997" r="0.15" fill="white" /><rect x="41.547968" y="-1.2999989999999997" width="0.9" height="1.0" rx="0.12" fill="#d6ad40" stroke="#725012" stroke-width="0.03" /><circle cx="41.997968" cy="-0.7999989999999997" r="0.15" fill="white" /><rect x="43.580225999999996" y="-1.2999989999999997" width="0.9" height="1.0" rx="0.12" fill="#d6ad40" stroke="#725012" stroke-width="0.03" /><circle cx="44.030226" cy="-0.7999989999999997" r="0.15" fill="white" /><rect x="49.16893499999999" y="-1.2999989999999997" width="0.9" height="1.0" rx="0.12" fill="#d6ad40" stroke="#725012" stroke-width="0.03" /><circle cx="49.61893499999999" cy="-0.7999989999999997" r="0.15" fill="white" /><rect x="51.201194" y="-1.2999989999999997" width="0.9" height="1.0" rx="0.12" fill="#d6ad40" stroke="#725012" stroke-width="0.03" /><circle cx="51.651194000000004" cy="-0.7999989999999997" r="0.15" fill="white" /><rect x="109.583084" y="-1.2999989999999997" width="0.9" height="1.0" rx="0.12" fill="#d6ad40" stroke="#725012" stroke-width="0.03" /><circle cx="110.033084" cy="-0.7999989999999997" r="0.15" fill="white" /><rect x="111.61534199999998" y="-1.2999989999999997" width="0.9" height="1.0" rx="0.12" fill="#d6ad40" stroke="#725012" stroke-width="0.03" /><circle cx="112.06534199999999" cy="-0.7999989999999997" r="0.15" fill="white" /><rect x="117.204051" y="-1.2999989999999997" width="0.9" height="1.0" rx="0.12" fill="#d6ad40" stroke="#725012" stroke-width="0.03" /><circle cx="117.65405100000001" cy="-0.7999989999999997" r="0.15" fill="white" /><rect x="119.23630899999999" y="-1.2999989999999997" width="0.9" height="1.0" rx="0.12" fill="#d6ad40" stroke="#725012" stroke-width="0.03" /><circle cx="119.686309" cy="-0.7999989999999997" r="0.15" fill="white" /><rect x="150.404153" y="-1.2999989999999997" width="0.9" height="1.0" rx="0.12" fill="#d6ad40" stroke="#725012" stroke-width="0.03" /><circle cx="150.854153" cy="-0.7999989999999997" r="0.15" fill="white" /><rect x="152.43641100000002" y="-1.2999989999999997" width="0.9" height="1.0" rx="0.12" fill="#d6ad40" stroke="#725012" stroke-width="0.03" /><circle cx="152.886411" cy="-0.7999989999999997" r="0.15" fill="white" /><rect x="158.025121" y="-1.2999989999999997" width="0.9" height="1.0" rx="0.12" fill="#d6ad40" stroke="#725012" stroke-width="0.03" /><circle cx="158.475121" cy="-0.7999989999999997" r="0.15" fill="white" /><rect x="160.057379" y="-1.2999989999999997" width="0.9" height="1.0" rx="0.12" fill="#d6ad40" stroke="#725012" stroke-width="0.03" /><circle cx="160.507379" cy="-0.7999989999999997" r="0.15" fill="white" /><rect x="27.940945000000003" y="-1.2999989999999997" width="0.9" height="1.0" rx="0.12" fill="#d6ad40" stroke="#725012" stroke-width="0.03" /><circle cx="28.390945000000002" cy="-0.7999989999999997" r="0.15" fill="white" /><rect x="29.973203" y="-1.2999989999999997" width="0.9" height="1.0" rx="0.12" fill="#d6ad40" stroke="#725012" stroke-width="0.03" /><circle cx="30.423203" cy="-0.7999989999999997" r="0.15" fill="white" /><rect x="35.561912" y="-1.2999989999999997" width="0.9" height="1.0" rx="0.12" fill="#d6ad40" stroke="#725012" stroke-width="0.03" /><circle cx="36.011912" cy="-0.7999989999999997" r="0.15" fill="white" /><rect x="37.59417" y="-1.2999989999999997" width="0.9" height="1.0" rx="0.12" fill="#d6ad40" stroke="#725012" stroke-width="0.03" /><circle cx="38.04417" cy="-0.7999989999999997" r="0.15" fill="white" /><rect x="55.154990999999995" y="-1.2999989999999997" width="0.9" height="1.0" rx="0.12" fill="#d6ad40" stroke="#725012" stroke-width="0.03" /><circle cx="55.604991" cy="-0.7999989999999997" r="0.15" fill="white" /><rect x="57.187248999999994" y="-1.2999989999999997" width="0.9" height="1.0" rx="0.12" fill="#d6ad40" stroke="#725012" stroke-width="0.03" /><circle cx="57.637249" cy="-0.7999989999999997" r="0.15" fill="white" /><rect x="62.775959" y="-1.2999989999999997" width="0.9" height="1.0" rx="0.12" fill="#d6ad40" stroke="#725012" stroke-width="0.03" /><circle cx="63.225959" cy="-0.7999989999999997" r="0.15" fill="white" /><rect x="64.808217" y="-1.2999989999999997" width="0.9" height="1.0" rx="0.12" fill="#d6ad40" stroke="#725012" stroke-width="0.03" /><circle cx="65.258217" cy="-0.7999989999999997" r="0.15" fill="white" /><rect x="245.65331500000002" y="-1.2999989999999997" width="0.9" height="1.0" rx="0.12" fill="#d6ad40" stroke="#725012" stroke-width="0.03" /><circle cx="246.103315" cy="-0.7999989999999997" r="0.15" fill="white" /><rect x="247.68557400000003" y="-1.2999989999999997" width="0.9" height="1.0" rx="0.12" fill="#d6ad40" stroke="#725012" stroke-width="0.03" /><circle cx="248.13557400000002" cy="-0.7999989999999997" r="0.15" fill="white" /><rect x="253.27428300000003" y="-1.2999989999999997" width="0.9" height="1.0" rx="0.12" fill="#d6ad40" stroke="#725012" stroke-width="0.03" /><circle cx="253.724283" cy="-0.7999989999999997" r="0.15" fill="white" /><rect x="255.30654100000004" y="-1.2999989999999997" width="0.9" height="1.0" rx="0.12" fill="#d6ad40" stroke="#725012" stroke-width="0.03" /><circle cx="255.75654100000003" cy="-0.7999989999999997" r="0.15" fill="white" /><rect x="14.333921" y="-1.2999989999999997" width="0.9" height="1.0" rx="0.12" fill="#d6ad40" stroke="#725012" stroke-width="0.03" /><circle cx="14.783921" cy="-0.7999989999999997" r="0.15" fill="white" /><rect x="16.366179" y="-1.2999989999999997" width="0.9" height="1.0" rx="0.12" fill="#d6ad40" stroke="#725012" stroke-width="0.03" /><circle cx="16.816178999999998" cy="-0.7999989999999997" r="0.15" fill="white" /><rect x="21.954888999999998" y="-1.2999989999999997" width="0.9" height="1.0" rx="0.12" fill="#d6ad40" stroke="#725012" stroke-width="0.03" /><circle cx="22.404888999999997" cy="-0.7999989999999997" r="0.15" fill="white" /><rect x="23.987147000000004" y="-1.2999989999999997" width="0.9" height="1.0" rx="0.12" fill="#d6ad40" stroke="#725012" stroke-width="0.03" /><circle cx="24.437147000000003" cy="-0.7999989999999997" r="0.15" fill="white" /><rect x="300.081408" y="-1.2999989999999997" width="0.9" height="1.0" rx="0.12" fill="#d6ad40" stroke="#725012" stroke-width="0.03" /><circle cx="300.531408" cy="-0.7999989999999997" r="0.15" fill="white" /><rect x="302.113666" y="-1.2999989999999997" width="0.9" height="1.0" rx="0.12" fill="#d6ad40" stroke="#725012" stroke-width="0.03" /><circle cx="302.563666" cy="-0.7999989999999997" r="0.15" fill="white" /><rect x="307.702376" y="-1.2999989999999997" width="0.9" height="1.0" rx="0.12" fill="#d6ad40" stroke="#725012" stroke-width="0.03" /><circle cx="308.152376" cy="-0.7999989999999997" r="0.15" fill="white" /><rect x="309.734634" y="-1.2999989999999997" width="0.9" height="1.0" rx="0.12" fill="#d6ad40" stroke="#725012" stroke-width="0.03" /><circle cx="310.184634" cy="-0.7999989999999997" r="0.15" fill="white" /><rect x="313.68843100000004" y="-1.2999989999999997" width="0.9" height="1.0" rx="0.12" fill="#d6ad40" stroke="#725012" stroke-width="0.03" /><circle cx="314.138431" cy="-0.7999989999999997" r="0.15" fill="white" /><rect x="315.720689" y="-1.2999989999999997" width="0.9" height="1.0" rx="0.12" fill="#d6ad40" stroke="#725012" stroke-width="0.03" /><circle cx="316.170689" cy="-0.7999989999999997" r="0.15" fill="white" /><rect x="321.309399" y="-1.2999989999999997" width="0.9" height="1.0" rx="0.12" fill="#d6ad40" stroke="#725012" stroke-width="0.03" /><circle cx="321.759399" cy="-0.7999989999999997" r="0.15" fill="white" /><rect x="323.341657" y="-1.2999989999999997" width="0.9" height="1.0" rx="0.12" fill="#d6ad40" stroke="#725012" stroke-width="0.03" /><circle cx="323.791657" cy="-0.7999989999999997" r="0.15" fill="white" /><rect x="232.04629200000002" y="-1.2999989999999997" width="0.9" height="1.0" rx="0.12" fill="#d6ad40" stroke="#725012" stroke-width="0.03" /><circle cx="232.496292" cy="-0.7999989999999997" r="0.15" fill="white" /><rect x="234.07855" y="-1.2999989999999997" width="0.9" height="1.0" rx="0.12" fill="#d6ad40" stroke="#725012" stroke-width="0.03" /><circle cx="234.52855" cy="-0.7999989999999997" r="0.15" fill="white" /><rect x="239.66726" y="-1.2999989999999997" width="0.9" height="1.0" rx="0.12" fill="#d6ad40" stroke="#725012" stroke-width="0.03" /><circle cx="240.11726" cy="-0.7999989999999997" r="0.15" fill="white" /><rect x="241.699518" y="-1.2999989999999997" width="0.9" height="1.0" rx="0.12" fill="#d6ad40" stroke="#725012" stroke-width="0.03" /><circle cx="242.149518" cy="-0.7999989999999997" r="0.15" fill="white" /><rect x="95.97606" y="-1.2999989999999997" width="0.9" height="1.0" rx="0.12" fill="#d6ad40" stroke="#725012" stroke-width="0.03" /><circle cx="96.42606" cy="-0.7999989999999997" r="0.15" fill="white" /><rect x="98.008319" y="-1.2999989999999997" width="0.9" height="1.0" rx="0.12" fill="#d6ad40" stroke="#725012" stroke-width="0.03" /><circle cx="98.458319" cy="-0.7999989999999997" r="0.15" fill="white" /><rect x="103.597028" y="-1.2999989999999997" width="0.9" height="1.0" rx="0.12" fill="#d6ad40" stroke="#725012" stroke-width="0.03" /><circle cx="104.047028" cy="-0.7999989999999997" r="0.15" fill="white" /><rect x="105.629286" y="-1.2999989999999997" width="0.9" height="1.0" rx="0.12" fill="#d6ad40" stroke="#725012" stroke-width="0.03" /><circle cx="106.079286" cy="-0.7999989999999997" r="0.15" fill="white" /><rect x="136.79713" y="-1.2999989999999997" width="0.9" height="1.0" rx="0.12" fill="#d6ad40" stroke="#725012" stroke-width="0.03" /><circle cx="137.24713" cy="-0.7999989999999997" r="0.15" fill="white" /><rect x="138.82938800000002" y="-1.2999989999999997" width="0.9" height="1.0" rx="0.12" fill="#d6ad40" stroke="#725012" stroke-width="0.03" /><circle cx="139.279388" cy="-0.7999989999999997" r="0.15" fill="white" /><rect x="144.41809800000001" y="-1.2999989999999997" width="0.9" height="1.0" rx="0.12" fill="#d6ad40" stroke="#725012" stroke-width="0.03" /><circle cx="144.868098" cy="-0.7999989999999997" r="0.15" fill="white" /><rect x="146.450356" y="-1.2999989999999997" width="0.9" height="1.0" rx="0.12" fill="#d6ad40" stroke="#725012" stroke-width="0.03" /><circle cx="146.900356" cy="-0.7999989999999997" r="0.15" fill="white" /><rect x="259.260339" y="-1.2999989999999997" width="0.9" height="1.0" rx="0.12" fill="#d6ad40" stroke="#725012" stroke-width="0.03" /><circle cx="259.710339" cy="-0.7999989999999997" r="0.15" fill="white" /><rect x="261.292597" y="-1.2999989999999997" width="0.9" height="1.0" rx="0.12" fill="#d6ad40" stroke="#725012" stroke-width="0.03" /><circle cx="261.742597" cy="-0.7999989999999997" r="0.15" fill="white" /><rect x="266.881306" y="-1.2999989999999997" width="0.9" height="1.0" rx="0.12" fill="#d6ad40" stroke="#725012" stroke-width="0.03" /><circle cx="267.331306" cy="-0.7999989999999997" r="0.15" fill="white" /><rect x="268.913564" y="-1.2999989999999997" width="0.9" height="1.0" rx="0.12" fill="#d6ad40" stroke="#725012" stroke-width="0.03" /><circle cx="269.363564" cy="-0.7999989999999997" r="0.15" fill="white" /><rect x="191.225223" y="-1.2999989999999997" width="0.9" height="1.0" rx="0.12" fill="#d6ad40" stroke="#725012" stroke-width="0.03" /><circle cx="191.675223" cy="-0.7999989999999997" r="0.15" fill="white" /><rect x="193.257481" y="-1.2999989999999997" width="0.9" height="1.0" rx="0.12" fill="#d6ad40" stroke="#725012" stroke-width="0.03" /><circle cx="193.707481" cy="-0.7999989999999997" r="0.15" fill="white" /><rect x="198.84619" y="-1.2999989999999997" width="0.9" height="1.0" rx="0.12" fill="#d6ad40" stroke="#725012" stroke-width="0.03" /><circle cx="199.29619" cy="-0.7999989999999997" r="0.15" fill="white" /><rect x="200.87844900000002" y="-1.2999989999999997" width="0.9" height="1.0" rx="0.12" fill="#d6ad40" stroke="#725012" stroke-width="0.03" /><circle cx="201.328449" cy="-0.7999989999999997" r="0.15" fill="white" /><rect x="68.762014" y="-1.2999989999999997" width="0.9" height="1.0" rx="0.12" fill="#d6ad40" stroke="#725012" stroke-width="0.03" /><circle cx="69.212014" cy="-0.7999989999999997" r="0.15" fill="white" /><rect x="70.79427199999999" y="-1.2999989999999997" width="0.9" height="1.0" rx="0.12" fill="#d6ad40" stroke="#725012" stroke-width="0.03" /><circle cx="71.244272" cy="-0.7999989999999997" r="0.15" fill="white" /><rect x="76.382982" y="-1.2999989999999997" width="0.9" height="1.0" rx="0.12" fill="#d6ad40" stroke="#725012" stroke-width="0.03" /><circle cx="76.832982" cy="-0.7999989999999997" r="0.15" fill="white" /><rect x="78.41524" y="-1.2999989999999997" width="0.9" height="1.0" rx="0.12" fill="#d6ad40" stroke="#725012" stroke-width="0.03" /><circle cx="78.86524" cy="-0.7999989999999997" r="0.15" fill="white" /><rect x="82.36903699999999" y="-1.2999989999999997" width="0.9" height="1.0" rx="0.12" fill="#d6ad40" stroke="#725012" stroke-width="0.03" /><circle cx="82.819037" cy="-0.7999989999999997" r="0.15" fill="white" /><rect x="84.40129499999999" y="-1.2999989999999997" width="0.9" height="1.0" rx="0.12" fill="#d6ad40" stroke="#725012" stroke-width="0.03" /><circle cx="84.851295" cy="-0.7999989999999997" r="0.15" fill="white" /><rect x="89.990005" y="-1.2999989999999997" width="0.9" height="1.0" rx="0.12" fill="#d6ad40" stroke="#725012" stroke-width="0.03" /><circle cx="90.440005" cy="-0.7999989999999997" r="0.15" fill="white" /><rect x="92.022263" y="-1.2999989999999997" width="0.9" height="1.0" rx="0.12" fill="#d6ad40" stroke="#725012" stroke-width="0.03" /><circle cx="92.472263" cy="-0.7999989999999997" r="0.15" fill="white" /><rect x="204.832246" y="-1.2999989999999997" width="0.9" height="1.0" rx="0.12" fill="#d6ad40" stroke="#725012" stroke-width="0.03" /><circle cx="205.282246" cy="-0.7999989999999997" r="0.15" fill="white" /><rect x="206.864504" y="-1.2999989999999997" width="0.9" height="1.0" rx="0.12" fill="#d6ad40" stroke="#725012" stroke-width="0.03" /><circle cx="207.314504" cy="-0.7999989999999997" r="0.15" fill="white" /><rect x="212.453214" y="-1.2999989999999997" width="0.9" height="1.0" rx="0.12" fill="#d6ad40" stroke="#725012" stroke-width="0.03" /><circle cx="212.903214" cy="-0.7999989999999997" r="0.15" fill="white" /><rect x="214.48547200000002" y="-1.2999989999999997" width="0.9" height="1.0" rx="0.12" fill="#d6ad40" stroke="#725012" stroke-width="0.03" /><circle cx="214.935472" cy="-0.7999989999999997" r="0.15" fill="white" /><rect x="164.011176" y="-1.2999989999999997" width="0.9" height="1.0" rx="0.12" fill="#d6ad40" stroke="#725012" stroke-width="0.03" /><circle cx="164.461176" cy="-0.7999989999999997" r="0.15" fill="white" /><rect x="166.04343400000002" y="-1.2999989999999997" width="0.9" height="1.0" rx="0.12" fill="#d6ad40" stroke="#725012" stroke-width="0.03" /><circle cx="166.493434" cy="-0.7999989999999997" r="0.15" fill="white" /><rect x="171.632144" y="-1.2999989999999997" width="0.9" height="1.0" rx="0.12" fill="#d6ad40" stroke="#725012" stroke-width="0.03" /><circle cx="172.082144" cy="-0.7999989999999997" r="0.15" fill="white" /><rect x="173.66440200000002" y="-1.2999989999999997" width="0.9" height="1.0" rx="0.12" fill="#d6ad40" stroke="#725012" stroke-width="0.03" /><circle cx="174.114402" cy="-0.7999989999999997" r="0.15" fill="white" /><rect x="177.6182" y="-1.2999989999999997" width="0.9" height="1.0" rx="0.12" fill="#d6ad40" stroke="#725012" stroke-width="0.03" /><circle cx="178.0682" cy="-0.7999989999999997" r="0.15" fill="white" /><rect x="179.65045800000001" y="-1.2999989999999997" width="0.9" height="1.0" rx="0.12" fill="#d6ad40" stroke="#725012" stroke-width="0.03" /><circle cx="180.100458" cy="-0.7999989999999997" r="0.15" fill="white" /><rect x="185.239167" y="-1.2999989999999997" width="0.9" height="1.0" rx="0.12" fill="#d6ad40" stroke="#725012" stroke-width="0.03" /><circle cx="185.689167" cy="-0.7999989999999997" r="0.15" fill="white" /><rect x="187.27142500000002" y="-1.2999989999999997" width="0.9" height="1.0" rx="0.12" fill="#d6ad40" stroke="#725012" stroke-width="0.03" /><circle cx="187.721425" cy="-0.7999989999999997" r="0.15" fill="white" /><text x="3.0035115904303966" y="10.4" font-family="Arial" font-size="1.6" fill="#152f40">Z4S1</text><text x="16.61053477129119" y="10.4" font-family="Arial" font-size="1.6" fill="#152f40">Z4S2</text><text x="30.217557952151985" y="10.4" font-family="Arial" font-size="1.6" fill="#152f40">Z4S3</text><text x="43.82458113301278" y="10.4" font-family="Arial" font-size="1.6" fill="#152f40">Z4S4</text><text x="57.43160431387357" y="10.4" font-family="Arial" font-size="1.6" fill="#152f40">Z5S1</text><text x="71.03862749473437" y="10.4" font-family="Arial" font-size="1.6" fill="#152f40">Z5S2</text><text x="84.64565067559515" y="10.4" font-family="Arial" font-size="1.6" fill="#152f40">Z5S3</text><text x="98.25267385645596" y="10.4" font-family="Arial" font-size="1.6" fill="#152f40">Z5S4</text><text x="111.85969703731674" y="10.4" font-family="Arial" font-size="1.6" fill="#152f40">Z6S1</text><text x="125.46672021817753" y="10.4" font-family="Arial" font-size="1.6" fill="#152f40">Z6S2</text><text x="139.0737433990383" y="10.4" font-family="Arial" font-size="1.6" fill="#152f40">Z6S3</text><text x="152.6807665798991" y="10.4" font-family="Arial" font-size="1.6" fill="#152f40">Z6S4</text><text x="166.2877897607599" y="10.4" font-family="Arial" font-size="1.6" fill="#152f40">Z1S1</text><text x="179.8948129416207" y="10.4" font-family="Arial" font-size="1.6" fill="#152f40">Z1S2</text><text x="193.50183612248148" y="10.4" font-family="Arial" font-size="1.6" fill="#152f40">Z1S3</text><text x="207.10885930334229" y="10.4" font-family="Arial" font-size="1.6" fill="#152f40">Z1S4</text><text x="220.71588248420306" y="10.4" font-family="Arial" font-size="1.6" fill="#152f40">Z2S1</text><text x="234.32290566506387" y="10.4" font-family="Arial" font-size="1.6" fill="#152f40">Z2S2</text><text x="247.92992884592465" y="10.4" font-family="Arial" font-size="1.6" fill="#152f40">Z2S3</text><text x="261.53695202678546" y="10.4" font-family="Arial" font-size="1.6" fill="#152f40">Z2S4</text><text x="275.14397520764624" y="10.4" font-family="Arial" font-size="1.6" fill="#152f40">Z3S1</text><text x="288.750998388507" y="10.4" font-family="Arial" font-size="1.6" fill="#152f40">Z3S2</text><text x="302.35802156936785" y="10.4" font-family="Arial" font-size="1.6" fill="#152f40">Z3S3</text><text x="315.9650447502286" y="10.4" font-family="Arial" font-size="1.6" fill="#152f40">Z3S4</text><text x="0" y="16.4" font-family="Arial" font-size="2.3" fill="#152f40">Copper: orange = F.Cu, blue = B.Cu. Pad order left to right: +24V / W / N / C. Gold = solder lands.</text></svg>